<svg width="90" height="90" viewBox="0 0 90 90" fill="none" xmlns="http://www.w3.org/2000/svg">
<path d="M6.17017 23.17L22.7302 6.60999C19.7902 8.28999 17.0601 10.3 14.5901 12.58L12.1402 15.03C9.86017 17.5 7.85017 20.23 6.17017 23.17Z" fill="#0B315E"/>
<path d="M1.22998 36.33L35.89 1.66998C34.93 1.85998 33.99 2.08998 33.05 2.33998L1.89996 33.49C1.64996 34.43 1.41998 35.37 1.22998 36.33Z" fill="#0B315E"/>
<path d="M0.350098 45.14C0.350098 45.23 0.350098 45.33 0.350098 45.42L44.9801 0.799988C44.8901 0.799988 44.7901 0.799988 44.7001 0.799988C44.0501 0.799988 43.4101 0.819988 42.7801 0.839988L0.400085 43.22C0.370085 43.86 0.350098 44.5 0.350098 45.14Z" fill="#0B315E"/>
<path d="M1.04001 52.96L52.51 1.48998C51.89 1.37998 51.26 1.27998 50.64 1.19998L0.75 51.09C0.83 51.71 0.930009 52.34 1.04001 52.96Z" fill="#0B315E"/>
<path d="M2.72018 59.49L59.0402 3.16999C58.5002 2.97999 57.9502 2.80999 57.4002 2.64999L2.2002 57.85C2.3702 58.4 2.54018 58.95 2.72018 59.49Z" fill="#0B315E"/>
<path d="M5.16998 65.26L64.82 5.60999C64.34 5.36999 63.85 5.12999 63.36 4.89999L4.45996 63.8C4.68996 64.29 4.91998 64.78 5.16998 65.26Z" fill="#0B315E"/>
<path d="M8.25012 70.4L69.9601 8.68998C69.5301 8.38998 69.1001 8.09998 68.6601 7.81998L7.38013 69.1C7.66013 69.54 7.95012 69.97 8.25012 70.4Z" fill="#0B315E"/>
<path d="M11.8901 74.98L74.5301 12.34C74.1501 12 73.7701 11.66 73.3801 11.33L10.8801 73.83C11.2101 74.21 11.5501 74.6 11.8901 74.98Z" fill="#0B315E"/>
<path d="M16.0801 79.01L78.5702 16.52C78.2402 16.13 77.9002 15.74 77.5602 15.36L14.9202 78C15.3002 78.34 15.6801 78.68 16.0801 79.01Z" fill="#0B315E"/>
<path d="M20.8 82.5L82.06 21.24C81.78 20.8 81.49 20.37 81.19 19.94L19.5 81.64C19.93 81.93 20.36 82.22 20.8 82.5Z" fill="#0B315E"/>
<path d="M26.1101 85.41L84.9601 26.56C84.7301 26.07 84.5001 25.58 84.2501 25.1L24.6401 84.71C25.1301 84.95 25.6201 85.18 26.1101 85.41Z" fill="#0B315E"/>
<path d="M32.0802 87.66L87.2202 32.52C87.0602 31.97 86.8802 31.42 86.7002 30.88L30.4402 87.14C30.9802 87.33 31.5302 87.5 32.0802 87.66Z" fill="#0B315E"/>
<path d="M38.86 89.1L88.66 39.3C88.58 38.67 88.48 38.04 88.37 37.42L36.98 88.81C37.6 88.92 38.23 89.02 38.86 89.1Z" fill="#0B315E"/>
<path d="M44.7 89.49C45.39 89.49 46.07 89.47 46.74 89.44L88.99 47.19C89.02 46.51 89.04 45.83 89.04 45.15C89.04 45.09 89.04 45.04 89.04 44.98L44.53 89.49C44.58 89.48 44.64 89.49 44.7 89.49Z" fill="#0B315E"/>
<path d="M56.5002 87.89L87.4502 56.94C87.7102 56 87.9402 55.05 88.1402 54.09L53.6501 88.58C54.6101 88.38 55.5602 88.15 56.5002 87.89Z" fill="#0B315E"/>
<path d="M83.0602 67.38L66.9302 83.51C73.6102 79.63 79.1802 74.06 83.0602 67.38Z" fill="#0B315E"/>
</svg>
